<mxfile host="app.diagrams.net" modified="2023-01-03T13:44:53.352Z" agent="5.0 (Macintosh; Intel Mac OS X 10_15_7) AppleWebKit/537.36 (KHTML, like Gecko) Chrome/108.0.0.0 Safari/537.36" version="20.7.4" etag="b3PgLimTvn4APnNWHtIE" type="github">
  <diagram id="xVNRCG-tcF9NAFgGcYIL" name="第 1 页">
    <mxGraphModel dx="954" dy="616" grid="1" gridSize="10" guides="1" tooltips="1" connect="1" arrows="1" fold="1" page="1" pageScale="1" pageWidth="827" pageHeight="1169" math="0" shadow="0">
      <root>
        <mxCell id="0" />
        <mxCell id="1" parent="0" />
        <mxCell id="Jpu4MJqHKeG_fBm41ClF-1" value="" style="rounded=0;whiteSpace=wrap;html=1;fillColor=#d5e8d4;strokeColor=#82b366;strokeWidth=2;" vertex="1" parent="1">
          <mxGeometry x="90" y="310" width="170" height="110" as="geometry" />
        </mxCell>
        <mxCell id="Jpu4MJqHKeG_fBm41ClF-2" value="SparkSubmit" style="text;html=1;strokeColor=none;fillColor=none;align=center;verticalAlign=middle;whiteSpace=wrap;rounded=0;strokeWidth=2;" vertex="1" parent="1">
          <mxGeometry x="145" y="310" width="60" height="30" as="geometry" />
        </mxCell>
        <mxCell id="Jpu4MJqHKeG_fBm41ClF-3" value="Driver" style="rounded=0;whiteSpace=wrap;html=1;strokeWidth=2;fillColor=#dae8fc;strokeColor=#6c8ebf;" vertex="1" parent="1">
          <mxGeometry x="115" y="350" width="120" height="60" as="geometry" />
        </mxCell>
        <mxCell id="Jpu4MJqHKeG_fBm41ClF-4" value="" style="rounded=0;whiteSpace=wrap;html=1;strokeWidth=2;fillColor=#f5f5f5;fontColor=#333333;strokeColor=#666666;" vertex="1" parent="1">
          <mxGeometry x="340" y="180" width="530" height="450" as="geometry" />
        </mxCell>
        <mxCell id="Jpu4MJqHKeG_fBm41ClF-5" value="Yarn Cluster" style="text;html=1;strokeColor=none;fillColor=none;align=center;verticalAlign=middle;whiteSpace=wrap;rounded=0;strokeWidth=2;" vertex="1" parent="1">
          <mxGeometry x="340" y="180" width="90" height="30" as="geometry" />
        </mxCell>
        <mxCell id="Jpu4MJqHKeG_fBm41ClF-6" value="&lt;font style=&quot;font-size: 14px;&quot;&gt;ResourceManager&lt;/font&gt;" style="rounded=0;whiteSpace=wrap;html=1;strokeWidth=2;fillColor=#ffe6cc;strokeColor=#d79b00;" vertex="1" parent="1">
          <mxGeometry x="370" y="300" width="170" height="170" as="geometry" />
        </mxCell>
        <mxCell id="Jpu4MJqHKeG_fBm41ClF-8" value="" style="rounded=0;whiteSpace=wrap;html=1;strokeWidth=2;fillColor=#ffe6cc;strokeColor=#d79b00;" vertex="1" parent="1">
          <mxGeometry x="580" y="220" width="240" height="160" as="geometry" />
        </mxCell>
        <mxCell id="Jpu4MJqHKeG_fBm41ClF-9" value="NodeManager" style="text;html=1;strokeColor=none;fillColor=none;align=center;verticalAlign=middle;whiteSpace=wrap;rounded=0;strokeWidth=2;" vertex="1" parent="1">
          <mxGeometry x="590" y="220" width="80" height="30" as="geometry" />
        </mxCell>
        <mxCell id="Jpu4MJqHKeG_fBm41ClF-10" value="" style="rounded=0;whiteSpace=wrap;html=1;strokeWidth=2;fillColor=#ffe6cc;strokeColor=#d79b00;" vertex="1" parent="1">
          <mxGeometry x="580" y="440" width="250" height="160" as="geometry" />
        </mxCell>
        <mxCell id="Jpu4MJqHKeG_fBm41ClF-11" value="NodeManager" style="text;html=1;strokeColor=none;fillColor=none;align=center;verticalAlign=middle;whiteSpace=wrap;rounded=0;strokeWidth=2;" vertex="1" parent="1">
          <mxGeometry x="590" y="440" width="80" height="30" as="geometry" />
        </mxCell>
      </root>
    </mxGraphModel>
  </diagram>
</mxfile>
